<?xml version="1.0" standalone="no"?>
<!DOCTYPE svg PUBLIC "-//W3C//DTD SVG 20010904//EN"
 "http://www.w3.org/TR/2001/REC-SVG-20010904/DTD/svg10.dtd">
<svg version="1.0" xmlns="http://www.w3.org/2000/svg"
 width="3508.000000pt" height="2480.000000pt" viewBox="0 0 3508.000000 2480.000000"
 preserveAspectRatio="xMidYMid meet">

<g transform="translate(0.000000,2480.000000) scale(0.100000,-0.100000)"
fill="#000000" stroke="none">
<path d="M17447 22759 c-4 -101 -7 -310 -8 -464 l-1 -280 256 -3 256 -2 0 85
0 85 -155 0 -155 0 0 125 0 124 113 3 112 3 3 79 c2 57 -1 82 -10 87 -7 5 -57
9 -110 9 l-98 0 0 77 0 76 155 -6 155 -7 0 90 0 90 -209 0 c-114 0 -228 3
-253 6 l-45 6 -6 -183z"/>
<path d="M18427 22923 c-8 -14 -259 -915 -255 -918 1 -2 38 -7 81 -12 65 -8
80 -7 84 5 3 8 36 134 72 280 l67 265 94 -171 c52 -94 98 -172 101 -172 4 0
65 69 135 152 l129 153 3 -50 c2 -28 9 -157 16 -288 9 -172 16 -241 25 -246
12 -8 151 -24 156 -19 4 5 -72 959 -77 963 -2 3 -82 -85 -177 -195 -96 -110
-176 -200 -180 -200 -3 0 -64 104 -134 230 -71 127 -131 230 -132 230 -2 0 -6
-3 -8 -7z"/>
<path d="M16585 22901 l-70 -6 2 -30 c1 -16 12 -214 23 -440 12 -225 23 -419
25 -430 4 -19 11 -20 87 -17 46 2 84 5 86 7 2 2 -2 83 -8 180 -6 98 -9 179 -8
181 2 1 70 -76 152 -172 l148 -175 106 7 c59 3 108 7 109 8 1 1 -75 84 -169
184 -93 101 -169 185 -167 186 2 2 27 15 54 29 182 92 210 327 51 434 -89 61
-186 73 -421 54z m255 -166 c16 -8 36 -25 44 -37 21 -29 20 -97 0 -127 -21
-30 -89 -60 -135 -61 l-36 0 -7 77 c-3 42 -6 96 -6 120 l0 43 55 0 c31 0 69
-7 85 -15z"/>
<path d="M15812 22815 c-57 -8 -107 -15 -111 -17 -7 -3 92 -876 102 -903 4 -8
26 -9 86 -2 95 11 88 -12 61 207 -10 85 -16 157 -14 160 3 2 33 10 66 17 117
24 222 93 264 174 9 18 18 57 21 88 11 117 -36 200 -142 252 -57 28 -80 33
-148 35 -45 2 -128 -3 -185 -11z m244 -178 c68 -62 38 -147 -64 -182 -84 -28
-82 -31 -98 120 -3 33 -8 68 -10 78 -5 15 3 17 65 17 67 0 74 -2 107 -33z"/>
<path d="M19535 22736 c-11 -47 -162 -881 -160 -884 5 -6 159 -32 163 -27 3 3
42 206 87 451 55 299 78 447 71 450 -6 2 -44 10 -84 18 -71 13 -72 13 -77 -8z"/>
<path d="M19940 22383 c-82 -332 -92 -415 -57 -505 55 -143 303 -244 474 -193
66 20 141 87 175 158 20 40 178 628 178 662 0 3 -38 5 -85 5 -79 0 -86 -2 -94
-22 -5 -13 -39 -142 -76 -288 -37 -145 -73 -277 -81 -293 -8 -15 -29 -37 -47
-48 -66 -42 -226 -4 -267 63 -33 54 -26 115 45 398 36 143 65 264 65 269 0 8
-138 91 -152 91 -2 0 -37 -134 -78 -297z"/>
<path d="M14660 22586 c-113 -29 -217 -55 -231 -59 l-27 -7 111 -442 c60 -244
111 -445 113 -447 4 -4 471 111 486 120 6 4 6 21 -1 48 -6 22 -16 58 -21 80
l-10 39 -150 -38 -150 -38 -9 37 c-33 124 -52 204 -49 206 2 2 47 15 101 28
54 14 101 28 104 31 5 4 -24 141 -33 157 -2 4 -46 -4 -96 -17 -51 -13 -100
-24 -109 -24 -11 0 -20 20 -31 67 -9 37 -13 70 -8 73 5 3 71 21 147 39 76 19
139 35 141 36 2 2 -1 20 -7 41 -5 22 -15 58 -21 82 -7 29 -16 42 -28 41 -9 0
-109 -24 -222 -53z"/>
<path d="M13930 22405 c-135 -27 -221 -75 -308 -170 -113 -123 -156 -287 -117
-440 58 -221 256 -369 490 -367 135 1 282 62 374 156 l41 42 -76 68 c-41 38
-76 67 -78 65 -1 -2 -12 -18 -25 -36 -34 -50 -135 -95 -225 -101 -65 -4 -81
-1 -132 22 -119 55 -184 149 -184 268 0 132 58 226 176 285 62 30 86 36 162
41 l90 5 11 74 c17 111 21 103 -61 102 -40 0 -102 -7 -138 -14z"/>
<path d="M20970 21964 c-129 -228 -236 -419 -238 -423 -4 -13 148 -66 158 -55
4 5 66 118 136 252 70 133 128 241 130 240 1 -2 25 -86 54 -188 28 -101 52
-185 53 -187 2 -1 75 49 162 113 88 63 161 111 163 106 1 -4 -22 -132 -51
-285 l-53 -277 45 -17 c25 -9 61 -22 79 -29 26 -10 34 -11 37 -1 9 26 156 939
152 943 -2 2 -100 -63 -217 -146 -118 -82 -217 -150 -222 -150 -4 0 -12 19
-19 43 -35 132 -129 471 -132 473 -1 2 -108 -184 -237 -412z"/>
<path d="M13003 22047 c-40 -17 -73 -36 -73 -42 0 -6 50 -122 111 -259 60
-137 109 -250 107 -251 -2 -2 -176 53 -388 121 -212 68 -390 123 -397 121 -10
-2 158 -393 332 -774 l24 -52 71 31 c40 18 74 37 76 42 2 6 -45 121 -105 256
-60 135 -106 246 -103 247 4 2 182 -53 397 -121 214 -69 392 -123 394 -121 5
5 -362 835 -369 834 -3 0 -38 -14 -77 -32z"/>
<path d="M22540 21403 c-90 -175 -185 -359 -212 -410 l-49 -91 178 -90 179
-90 37 68 c20 37 37 72 37 76 0 5 -43 32 -95 59 -52 28 -95 53 -95 56 0 3 74
150 165 326 91 176 165 325 165 332 0 8 -128 81 -143 81 -2 0 -77 -143 -167
-317z"/>
<path d="M11850 21491 c-118 -66 -214 -125 -212 -131 1 -7 100 -189 218 -406
l216 -394 87 48 c343 186 361 197 355 212 -3 8 -21 43 -40 77 l-34 61 -136
-74 c-75 -41 -137 -74 -139 -72 -13 19 -115 210 -115 216 0 4 43 30 95 57 52
28 95 51 95 53 0 2 -18 36 -41 77 l-41 75 -66 -37 c-37 -20 -81 -44 -98 -54
l-31 -19 -36 67 c-21 36 -36 67 -35 68 2 1 63 35 136 75 72 39 132 74 132 76
0 14 -77 144 -85 144 -5 0 -107 -54 -225 -119z"/>
<path d="M23203 21142 c-84 -136 -164 -274 -179 -307 -37 -83 -44 -185 -16
-248 42 -95 152 -187 273 -227 116 -40 224 -13 313 76 41 40 76 95 294 451
l81 131 -86 27 c-47 14 -86 25 -88 23 -1 -2 -67 -109 -146 -238 -182 -299
-214 -333 -303 -316 -46 9 -139 71 -160 108 -24 40 -22 107 4 159 13 24 83
142 157 262 l134 218 -58 64 c-32 36 -60 65 -63 65 -3 0 -73 -111 -157 -248z"/>
<path d="M11298 21169 c-62 -38 -67 -43 -56 -62 9 -18 466 -757 472 -764 2 -2
127 75 138 86 8 7 -463 773 -478 778 -5 2 -39 -16 -76 -38z"/>
<path d="M10780 20807 c-71 -24 -312 -184 -306 -203 4 -10 501 -721 517 -738
12 -13 151 83 142 98 -4 6 -48 70 -98 141 -50 72 -94 135 -98 141 -3 6 92 -21
213 -59 l220 -71 85 59 c47 32 85 61 85 65 0 4 -107 35 -237 70 -131 35 -240
65 -242 67 -3 2 6 14 18 27 31 33 61 118 61 175 0 69 -24 129 -72 178 -73 74
-169 91 -288 50z m105 -171 c89 -38 85 -158 -9 -230 l-35 -26 -71 101 c-39 56
-70 102 -68 103 60 42 104 63 136 65 7 1 28 -5 47 -13z"/>
<path d="M24179 20585 c-18 -135 -36 -249 -39 -254 -3 -4 -95 -49 -205 -101
-110 -51 -217 -101 -238 -112 l-38 -19 81 -59 80 -60 151 76 c83 41 152 74
153 72 2 -2 -10 -70 -25 -153 -15 -82 -28 -157 -29 -166 0 -13 150 -132 158
-124 2 1 19 110 38 241 19 132 36 248 39 260 4 16 57 46 235 129 127 59 229
109 228 111 -9 8 -193 74 -208 74 -9 0 -63 -20 -120 -45 -57 -25 -104 -44
-106 -43 -2 3 11 145 21 210 5 34 0 43 -66 122 -38 47 -72 86 -73 86 -2 0 -18
-110 -37 -245z"/>
<path d="M10090 20309 c-102 -83 -191 -156 -197 -163 -10 -9 52 -90 277 -366
160 -195 293 -354 297 -352 6 3 349 280 386 312 9 8 -89 130 -105 130 -5 0
-59 -40 -120 -90 -60 -49 -113 -90 -117 -90 -4 0 -42 42 -84 94 l-77 94 83 68
c45 37 84 69 86 70 4 4 -99 134 -106 134 -3 0 -40 -29 -83 -65 -43 -36 -82
-65 -88 -65 -16 0 -96 110 -86 119 5 4 57 47 117 95 59 48 107 91 107 94 0 7
-66 91 -93 119 -10 10 -52 -20 -197 -138z"/>
<path d="M24829 20009 c-211 -240 -248 -289 -273 -362 -39 -115 2 -237 114
-340 149 -138 317 -153 449 -41 42 36 441 483 441 494 0 5 -144 80 -154 80 -1
0 -90 -99 -197 -221 -194 -221 -237 -259 -294 -259 -48 0 -127 52 -172 113
-28 37 -30 103 -7 154 14 28 248 303 365 428 l28 30 -47 72 c-26 40 -50 73
-53 73 -4 0 -94 -99 -200 -221z"/>
<path d="M9555 19796 c-22 -7 -54 -20 -70 -28 -39 -21 -251 -218 -247 -230 1
-5 143 -158 314 -339 l312 -330 58 58 c32 31 58 60 58 63 0 3 -54 63 -121 133
l-120 128 47 52 c26 29 61 81 78 117 26 54 31 77 31 135 0 81 -18 124 -72 181
-68 69 -168 92 -268 60z m126 -195 c18 -19 29 -40 29 -58 0 -34 -30 -97 -64
-138 l-25 -29 -78 83 c-43 46 -79 87 -80 90 -2 3 20 23 48 44 68 49 126 52
170 8z"/>
<path d="M25645 19442 c-60 -59 -208 -202 -329 -318 l-219 -211 60 -63 60 -64
131 129 c90 87 132 122 132 109 0 -10 -16 -113 -35 -229 l-34 -210 76 -77 c42
-43 78 -76 79 -75 1 1 14 112 29 247 15 135 28 246 30 248 2 2 23 -7 47 -20
60 -32 185 -33 243 -1 87 47 129 117 130 218 0 105 -38 175 -172 315 -58 60
-108 110 -112 110 -3 0 -55 -49 -116 -108z m168 -168 c43 -55 55 -110 33 -152
-16 -31 -69 -62 -105 -62 -30 0 -91 33 -121 64 l-24 27 84 84 c47 47 87 85 91
85 3 0 22 -21 42 -46z"/>
<path d="M8953 19215 l-51 -101 36 -112 c19 -61 33 -114 30 -117 -3 -3 -58 6
-123 19 l-117 25 -91 -61 c-77 -52 -88 -63 -72 -69 11 -4 119 -31 240 -60 121
-29 225 -57 231 -63 6 -6 48 -119 94 -251 46 -132 84 -241 86 -243 2 -4 84 82
115 122 l21 27 -57 150 c-32 82 -55 152 -52 155 3 3 75 -14 161 -39 l155 -44
67 74 c36 41 65 75 63 77 -2 2 -119 32 -259 67 l-255 64 -82 230 c-45 127 -83
235 -86 240 -2 6 -27 -35 -54 -90z"/>
<path d="M26291 18677 c-131 -343 -105 -303 -284 -447 -86 -69 -156 -129 -156
-133 -1 -12 93 -126 104 -126 6 0 81 58 168 129 137 112 164 130 210 139 28 6
155 30 281 54 l229 43 -105 62 -105 61 -129 -24 c-70 -14 -131 -25 -135 -25
-3 0 15 60 41 134 l46 135 -37 106 c-21 59 -39 108 -41 110 -2 2 -41 -96 -87
-218z"/>
<path d="M8221 18404 c-83 -107 -152 -199 -154 -203 -1 -5 124 -106 278 -226
154 -120 317 -247 362 -282 l81 -63 156 200 c86 110 156 202 156 204 0 12
-133 107 -139 99 -4 -4 -47 -59 -95 -120 -48 -62 -90 -113 -93 -113 -4 0 -140
104 -192 147 -2 1 23 38 55 80 33 43 63 83 67 90 9 14 -122 119 -132 106 -6
-6 -40 -50 -127 -162 -6 -7 -114 79 -114 90 0 6 37 59 83 117 46 59 86 112 90
118 6 10 -65 73 -118 106 -8 5 -69 -66 -164 -188z"/>
<path d="M17465 18561 c-111 -30 -265 -97 -280 -120 -3 -6 20 -17 52 -26 345
-95 580 -243 719 -451 69 -103 141 -274 116 -274 -5 0 -47 29 -93 63 -113 85
-161 115 -240 147 -262 108 -485 67 -722 -134 -121 -103 -330 -396 -282 -396
3 0 23 11 43 24 134 84 355 172 510 202 177 35 404 21 602 -38 68 -21 72 -23
45 -29 -16 -4 -48 -7 -70 -8 -56 -1 -149 -27 -209 -57 -203 -102 -347 -339
-372 -611 l-7 -76 149 128 c175 149 302 252 399 322 88 64 255 166 261 160 3
-3 -2 -81 -11 -173 -136 -1425 212 -2798 989 -3907 42 -60 76 -114 76 -121 0
-15 14 -17 -375 60 -276 54 -630 132 -931 204 -230 54 -226 54 -179 28 56 -30
610 -223 910 -318 629 -197 1143 -334 1795 -479 361 -80 519 -110 640 -121 82
-8 170 -21 410 -61 138 -23 305 -47 615 -88 360 -47 445 -55 489 -43 30 9 53
7 113 -9 53 -13 140 -22 292 -29 119 -6 257 -15 308 -20 128 -14 1200 -13
1403 1 93 7 176 17 191 25 19 10 36 10 67 2 32 -8 47 -7 70 5 25 12 33 12 53
0 18 -10 49 -12 124 -7 467 27 1301 174 1900 334 459 123 1127 371 1093 406
-3 2 -42 -3 -89 -11 -118 -21 -659 -87 -1144 -140 -225 -24 -427 -46 -449 -49
-21 -2 -45 -2 -52 1 -12 4 -14 151 -14 908 0 520 4 906 9 909 5 3 94 -56 197
-131 104 -75 196 -138 204 -140 8 -2 58 28 110 67 143 105 162 123 155 140 -3
8 -293 224 -643 480 -2189 1596 -2733 1990 -2750 1990 -11 0 -352 -242 -759
-538 -965 -704 -2511 -1833 -2591 -1893 l-62 -47 129 -96 c82 -61 137 -96 153
-96 14 0 45 15 69 33 142 108 312 227 324 227 13 0 15 -109 13 -882 l-3 -883
-110 3 c-160 5 -170 11 -285 170 -188 261 -401 635 -523 922 -235 553 -354
1108 -345 1606 l3 149 130 0 c117 -1 137 -4 193 -27 137 -57 262 -155 360
-282 25 -33 47 -55 49 -49 9 25 -40 193 -77 270 -47 95 -118 174 -187 206 -69
32 -243 31 -323 -1 -64 -25 -80 -27 -80 -9 0 40 194 138 335 169 55 12 102 23
104 25 12 9 -90 97 -138 120 -166 82 -301 -26 -416 -332 l-7 -20 -8 20 c-4 11
-10 51 -14 88 -16 159 -87 310 -170 362 -46 28 -57 30 -140 30 -82 0 -98 -3
-158 -32 -38 -18 -68 -36 -68 -41 0 -5 25 -14 56 -21 93 -21 225 -94 292 -161
58 -57 144 -201 130 -215 -3 -3 -35 14 -71 38 -95 65 -167 91 -257 91 -66 1
-84 -3 -144 -33 -44 -21 -92 -56 -130 -95 -57 -57 -116 -141 -116 -165 0 -6
31 5 70 24 133 67 212 88 335 88 78 1 127 -4 170 -17 l60 -18 -75 -22 c-114
-33 -179 -89 -227 -194 -26 -55 -52 -177 -41 -188 4 -3 60 39 125 93 132 110
195 156 267 198 l49 28 -9 -99 c-24 -263 -2 -755 43 -974 9 -41 21 -104 29
-140 34 -173 74 -316 139 -495 116 -319 274 -615 474 -885 45 -61 67 -98 61
-105 -10 -12 -490 54 -556 75 -42 14 -69 45 -191 221 -738 1060 -1203 2324
-1273 3459 -12 202 -13 590 0 684 4 37 13 73 20 80 7 7 75 11 213 10 185 0
210 -2 299 -26 297 -81 570 -281 793 -583 88 -118 91 -108 39 104 -69 282
-153 453 -289 587 -131 131 -254 179 -450 178 -152 -1 -261 -29 -487 -128 -21
-9 -38 -12 -38 -7 0 19 57 76 131 131 154 114 362 200 619 256 69 15 129 30
133 34 5 4 -34 44 -85 89 -246 217 -455 231 -642 44 -111 -111 -186 -241 -282
-488 l-38 -100 -8 40 c-4 22 -14 103 -22 180 -41 361 -166 602 -362 696 -62
29 -79 33 -174 36 -80 2 -122 -1 -175 -16z m6351 -1974 c77 -56 600 -440 1164
-851 564 -412 1033 -756 1042 -765 25 -25 34 -104 13 -124 -15 -16 -188 -17
-2383 -15 l-2367 3 -3 45 c-2 28 2 56 13 75 10 19 109 97 273 216 218 158
1847 1344 2025 1475 32 24 65 44 72 44 7 0 75 -46 151 -103z m447 -1934 c4 -2
7 -426 7 -943 0 -848 -2 -938 -16 -944 -22 -8 -993 -8 -1103 0 -80 6 -90 9
-95 28 -3 11 -6 434 -6 938 0 863 1 918 18 928 12 8 185 9 602 4 322 -3 588
-8 593 -11z m-2744 -23 c3 -14 5 -417 3 -896 l-2 -871 -98 4 c-53 2 -107 6
-119 9 l-23 4 0 884 c0 485 3 886 7 890 4 3 56 5 117 4 108 -3 110 -3 115 -28z
m334 -861 c5 -598 5 -894 -2 -912 -10 -25 -14 -27 -68 -26 -32 0 -83 6 -113
12 l-55 12 -3 879 c-2 781 0 882 13 903 15 23 20 24 118 21 l102 -3 8 -886z
m325 -25 c2 -802 0 -913 -13 -924 -11 -9 -41 -10 -123 -4 l-107 9 -3 895 c-1
492 0 905 3 918 5 22 8 23 123 20 l117 -3 3 -911z m310 904 c9 -9 12 -229 12
-930 l0 -918 -113 0 c-75 0 -117 4 -125 12 -15 15 -18 1782 -2 1822 9 26 11
26 113 26 67 0 107 -4 115 -12z m390 -929 c2 -886 1 -937 -15 -940 -10 -2 -76
-2 -148 1 l-130 5 -3 925 c-1 509 0 931 3 938 3 10 39 12 147 10 l143 -3 3
-936z m1862 766 c3 -93 3 -516 0 -940 l-5 -770 -139 -3 c-105 -2 -141 1 -148
10 -9 16 -11 1862 -1 1872 4 3 70 5 147 4 l141 -3 5 -170z m325 -765 l0 -935
-120 0 -120 0 -3 924 c-1 687 1 927 9 938 9 10 38 13 123 11 l111 -3 0 -935z
m323 27 c1 -584 -1 -915 -8 -927 -8 -15 -27 -19 -116 -25 -85 -6 -108 -5 -115
6 -10 16 -12 1779 -3 1828 l7 32 116 -3 116 -3 3 -908z m330 2 c2 -740 0 -908
-11 -917 -7 -6 -62 -13 -123 -14 l-109 -3 -3 865 c-2 476 0 884 3 907 10 68
22 74 139 71 l101 -3 3 -906z m320 4 l2 -903 -22 -5 c-13 -3 -66 -6 -118 -8
l-95 -2 -3 900 c-1 495 0 906 3 913 3 9 33 12 117 10 l113 -3 3 -902z"/>
<path d="M16330 16699 l0 -396 107 -6 c58 -4 161 -7 229 -7 l122 0 -10 38
c-17 60 -121 272 -196 399 -59 100 -213 326 -243 358 -5 5 -9 -148 -9 -386z"/>
<path d="M16330 15451 l0 -602 78 5 c42 4 165 11 272 17 266 14 371 25 382 41
22 31 -12 472 -53 688 -21 110 -94 386 -109 410 -11 18 -94 26 -367 36 l-203
7 0 -602z"/>
<path d="M16330 14315 l0 -404 73 -21 c39 -12 159 -49 265 -82 106 -33 199
-57 207 -54 9 3 20 18 26 33 18 47 97 363 113 453 37 205 58 442 42 469 -5 8
-111 11 -367 11 l-359 0 0 -405z"/>
<path d="M10275 14284 c-557 -35 -1060 -97 -1520 -189 -944 -189 -1770 -476
-2710 -940 -314 -155 -489 -252 -884 -487 -317 -189 -296 -176 -289 -183 2 -3
45 9 94 25 191 65 681 210 994 294 715 191 1800 356 2605 396 267 13 1279 13
1535 0 281 -14 504 -35 945 -86 545 -63 949 -124 1410 -214 1033 -201 1852
-414 3740 -973 1077 -320 1655 -488 1909 -558 122 -33 277 -76 346 -96 69 -19
136 -37 150 -40 14 -2 34 -8 45 -12 11 -5 162 -43 335 -85 1022 -247 1592
-353 2410 -450 927 -111 1860 -112 2700 -5 1117 142 2216 484 3310 1030 631
315 1141 625 1815 1104 246 174 299 215 291 222 -2 2 -66 -24 -142 -58 -966
-427 -1809 -712 -2747 -928 -662 -153 -1263 -243 -2012 -302 -334 -27 -1161
-37 -1520 -20 -362 18 -1021 77 -1359 122 -600 79 -1453 250 -2226 444 -772
194 -1290 344 -2915 840 -986 301 -1012 309 -1593 470 -563 155 -766 208
-1097 284 -869 200 -1706 330 -2455 381 -153 10 -1049 21 -1165 14z"/>
<path d="M8170 12734 c-8 -2 -136 -13 -285 -24 -362 -27 -1016 -110 -1315
-165 -41 -8 -227 -47 -413 -87 -349 -75 -411 -99 -195 -77 165 16 1475 24
1773 10 464 -22 1096 -70 1465 -112 645 -72 1578 -228 2740 -458 1433 -283
2208 -417 2870 -495 307 -37 697 -74 897 -86 167 -10 611 -14 602 -6 -2 2 -42
9 -89 16 -254 34 -915 209 -1790 475 -1399 425 -2266 644 -3135 795 -466 80
-700 113 -1060 150 -624 62 -623 62 -1360 66 -379 1 -697 1 -705 -2z"/>
<path d="M4926 9084 c-371 -73 -717 -358 -901 -740 -97 -200 -143 -386 -152
-610 -9 -237 21 -418 106 -635 188 -481 592 -813 1045 -859 193 -19 407 16
571 95 94 45 225 140 303 218 l62 63 -121 189 c-67 105 -141 220 -164 256
l-43 67 -69 -67 c-145 -141 -331 -199 -498 -156 -87 23 -152 62 -231 140 -256
252 -317 700 -143 1047 76 154 168 251 296 315 59 29 85 36 155 40 48 3 108 0
141 -7 75 -15 217 -87 286 -144 l55 -45 163 244 c90 135 163 249 163 253 0 5
-24 31 -52 59 -161 151 -346 245 -553 278 -111 18 -326 18 -419 -1z"/>
<path d="M18783 9085 c-217 -39 -425 -150 -602 -320 -126 -122 -209 -235 -286
-390 -118 -236 -166 -437 -166 -695 -1 -226 30 -400 106 -592 285 -719 1009
-1046 1640 -739 335 163 586 473 704 870 50 168 64 290 58 501 -6 206 -18 272
-78 455 -75 226 -180 396 -349 566 -192 193 -381 298 -623 344 -96 18 -304 18
-404 0z m282 -676 c155 -28 279 -141 370 -334 125 -264 120 -577 -11 -844 -58
-117 -165 -231 -259 -277 -56 -27 -68 -29 -175 -29 -109 0 -119 2 -183 32
-162 77 -289 268 -339 513 -16 78 -19 120 -15 235 6 169 28 260 95 395 37 75
62 111 122 171 82 83 136 116 220 135 71 16 103 16 175 3z"/>
<path d="M24936 9085 c-240 -50 -443 -163 -629 -352 -114 -115 -189 -222 -262
-368 -102 -206 -150 -378 -165 -590 -23 -346 67 -680 260 -968 135 -203 303
-352 505 -452 250 -124 513 -152 782 -85 156 39 375 171 500 301 l42 44 -165
256 -165 256 -68 -67 c-108 -105 -253 -170 -378 -170 -138 0 -242 48 -358 165
-93 92 -156 202 -201 351 -26 82 -28 102 -28 259 0 203 15 272 96 435 44 90
64 117 137 190 120 119 209 159 351 160 132 0 297 -70 407 -173 l31 -29 169
252 168 253 -63 57 c-138 128 -290 212 -461 257 -80 21 -124 26 -266 29 -121
2 -190 -1 -239 -11z"/>
<path d="M6227 8993 c-4 -3 -7 -602 -7 -1330 l0 -1323 350 0 350 0 0 1330 0
1330 -343 0 c-189 0 -347 -3 -350 -7z"/>
<path d="M7277 8993 c-4 -3 -7 -602 -7 -1330 l0 -1323 350 0 350 0 0 712 c0
391 3 708 8 704 4 -4 163 -323 353 -709 l346 -702 367 -3 366 -2 -2 1327 -3
1328 -347 3 -348 2 -2 -715 -3 -716 -350 713 -351 713 -360 3 c-198 1 -363 -1
-367 -5z"/>
<path d="M9760 7670 l0 -1330 350 0 350 0 2 711 3 711 350 -711 350 -711 368
0 367 0 -2 1328 -3 1327 -347 3 -348 2 0 -717 c0 -411 -4 -713 -9 -707 -5 5
-164 326 -354 714 l-346 705 -366 3 -365 2 0 -1330z"/>
<path d="M13026 8968 c-16 -38 -907 -2584 -914 -2611 -4 -16 15 -17 338 -15
l343 3 56 210 56 210 377 3 377 2 14 -47 c7 -27 33 -123 57 -215 l44 -168 344
0 c332 0 343 1 337 19 -3 10 -212 608 -464 1327 l-458 1309 -247 3 -247 2 -13
-32z m372 -1188 l109 -405 -220 -3 c-121 -1 -221 -1 -223 1 -2 2 41 172 96
378 129 480 122 456 126 444 2 -5 53 -192 112 -415z"/>
<path d="M14677 8993 c-4 -3 -7 -602 -7 -1330 l0 -1323 350 0 350 0 2 662 3
662 255 -662 254 -662 171 0 171 0 254 661 255 661 3 -661 2 -661 350 0 350 0
-2 1328 -3 1327 -360 0 -360 0 -326 -793 c-180 -436 -329 -795 -331 -797 -2
-2 -152 356 -332 795 l-329 800 -357 0 c-196 0 -360 -3 -363 -7z"/>
<path d="M20537 8993 c-4 -3 -7 -602 -7 -1330 l0 -1323 350 0 350 0 1 713 1
712 353 -712 354 -713 365 0 366 0 -2 1328 -3 1327 -347 3 -348 2 0 -717 c0
-394 -3 -714 -6 -710 -3 3 -162 324 -354 714 l-348 708 -359 3 c-198 1 -362
-1 -366 -5z"/>
<path d="M26230 7670 l0 -1330 350 0 350 0 -2 1328 -3 1327 -347 3 -348 2 0
-1330z"/>
<path d="M27140 8695 l0 -305 270 0 270 0 0 -1025 0 -1025 355 0 355 0 0 1025
0 1025 270 0 270 0 0 305 0 305 -895 0 -895 0 0 -305z"/>
<path d="M29008 8994 c-8 -7 463 -1039 582 -1275 54 -108 115 -242 134 -298
l36 -103 0 -489 0 -489 350 0 350 0 0 502 0 503 27 80 c14 44 58 140 96 215
90 175 626 1343 620 1353 -2 4 -162 7 -354 7 l-350 0 -14 -33 c-7 -18 -93
-251 -190 -518 -97 -266 -180 -487 -183 -491 -4 -4 -90 219 -191 495 -102 276
-189 512 -194 525 l-10 22 -352 0 c-193 0 -354 -2 -357 -6z"/>
<path d="M10292 4478 l3 -943 245 0 245 0 3 333 2 332 250 0 250 0 2 -332 3
-333 248 -3 247 -2 0 945 0 945 -250 0 -250 0 0 -390 0 -390 -250 0 -250 0 0
390 0 390 -250 0 -250 0 2 -942z"/>
<path d="M12040 4475 l0 -945 248 2 247 3 3 943 2 942 -250 0 -250 0 0 -945z"/>
<path d="M12782 4478 l3 -943 248 -3 247 -2 0 196 0 197 82 129 81 129 121
-323 121 -323 278 -3 c152 -1 277 0 277 4 0 3 -120 243 -266 534 l-265 529
261 408 261 408 -258 3 c-142 1 -262 1 -268 -2 -6 -2 -103 -175 -216 -385
l-204 -380 -3 384 -2 385 -250 0 -250 0 2 -942z"/>
<path d="M14390 4475 l0 -945 248 2 247 3 5 200 5 200 74 118 c41 64 77 117
80 117 4 0 60 -144 125 -320 l119 -320 279 0 c153 0 278 3 278 6 0 3 -120 242
-266 530 -146 289 -263 531 -260 539 4 11 405 641 504 793 l14 22 -268 0 -269
0 -205 -383 -205 -382 -3 383 -2 382 -250 0 -250 0 0 -945z"/>
<path d="M16556 5412 c-5 -8 -645 -1834 -654 -1864 -4 -17 12 -18 237 -18 216
0 242 2 248 17 4 9 23 77 42 152 l36 136 269 0 270 0 37 -142 c20 -78 40 -147
44 -152 7 -13 485 -16 485 -3 -1 4 -148 428 -329 942 l-327 935 -176 3 c-97 1
-179 -1 -182 -6z m258 -849 c42 -155 76 -284 76 -287 0 -3 -70 -6 -155 -6 -85
0 -155 3 -155 7 0 3 29 117 66 252 36 135 70 263 75 285 6 21 12 36 14 35 2
-2 37 -131 79 -286z"/>
<path d="M17720 4476 l0 -946 328 0 c357 1 428 6 547 44 327 104 553 441 572
851 18 404 -166 762 -471 914 -146 74 -154 75 -588 79 l-388 3 0 -945z m655
553 c113 -42 211 -175 257 -348 29 -108 28 -295 -1 -406 -58 -220 -184 -352
-353 -371 l-58 -7 0 577 0 576 50 0 c27 0 74 -9 105 -21z"/>
<path d="M19352 4728 l3 -693 33 -94 c57 -163 139 -274 266 -359 140 -93 333
-137 510 -114 322 41 545 247 610 564 14 66 16 175 16 733 l0 655 -250 0 -249
0 -3 -652 -3 -653 -29 -52 c-16 -29 -46 -64 -69 -80 -36 -25 -49 -28 -118 -28
-70 0 -81 3 -121 30 -28 21 -53 50 -73 90 l-30 59 -3 643 -3 643 -245 0 -245
0 3 -692z"/>
<path d="M20920 5408 c0 -8 380 -1352 516 -1826 l16 -52 205 2 206 3 127 447
c69 246 129 450 132 453 3 3 55 -174 117 -392 62 -219 120 -423 129 -453 l17
-55 205 0 205 0 267 935 c147 514 267 938 268 943 0 4 -110 7 -244 7 l-244 0
-30 -127 c-17 -71 -77 -332 -133 -580 -57 -249 -106 -453 -109 -453 -4 0 -245
844 -321 1123 l-10 38 -116 -3 -116 -3 -158 -560 c-87 -308 -161 -571 -165
-585 -9 -33 -3 -54 -154 608 l-124 542 -243 0 c-179 0 -243 -3 -243 -12z"/>
<path d="M23472 4498 c-178 -508 -325 -933 -329 -946 l-5 -22 243 2 243 3 40
153 40 152 268 0 267 0 12 -42 c6 -24 24 -91 40 -151 16 -59 29 -110 29 -112
0 -8 479 -6 483 3 2 4 -143 428 -324 942 l-327 935 -179 3 -178 2 -323 -922z
m578 72 c39 -146 73 -273 76 -282 5 -17 -7 -18 -150 -18 -114 0 -156 3 -156
12 0 12 122 475 142 538 6 19 13 31 14 25 2 -5 35 -129 74 -275z"/>
<path d="M18040 2735 c-89 -28 -159 -117 -174 -222 l-6 -43 70 0 c65 0 70 1
70 22 0 36 38 102 69 121 36 21 112 22 151 2 65 -34 81 -149 34 -243 -33 -66
-139 -179 -283 -302 l-111 -95 0 -47 0 -48 295 0 295 0 0 55 0 55 -187 0 -186
0 130 128 c112 110 135 138 169 206 66 136 58 257 -23 347 -64 71 -200 99
-313 64z"/>
<path d="M18775 2736 c-89 -28 -139 -74 -173 -161 -41 -104 -53 -294 -27 -429
25 -131 70 -207 149 -249 35 -19 57 -22 146 -22 93 0 110 3 150 25 98 55 148
169 157 360 13 271 -56 432 -203 473 -70 20 -143 21 -199 3z m175 -135 c23
-12 44 -36 60 -67 24 -46 25 -56 25 -229 0 -174 -1 -182 -25 -224 -37 -66 -66
-83 -140 -83 -74 0 -103 17 -140 83 -24 42 -25 50 -25 224 0 173 1 183 25 229
30 58 75 86 140 86 25 0 61 -8 80 -19z"/>
<path d="M19900 2735 c-89 -28 -159 -117 -174 -222 l-6 -43 70 0 c65 0 70 1
70 22 0 36 38 102 69 121 36 21 112 22 151 2 65 -34 81 -149 34 -243 -33 -66
-139 -179 -283 -302 l-111 -95 0 -47 0 -48 295 0 295 0 0 55 0 55 -187 0 -186
0 130 128 c112 110 135 138 169 207 36 73 39 85 39 165 0 94 -13 130 -68 188
-62 65 -199 90 -307 57z"/>
<path d="M19300 2670 l0 -60 55 0 55 0 2 -372 3 -373 68 -3 67 -3 0 436 0 435
-125 0 -125 0 0 -60z"/>
<path d="M15509 2687 c-65 -25 -109 -58 -137 -105 -23 -39 -27 -58 -27 -117 1
-84 19 -123 77 -165 23 -17 74 -40 112 -51 194 -57 226 -74 240 -132 20 -78
-41 -140 -139 -140 -70 0 -112 24 -136 79 l-20 44 -69 0 c-70 0 -70 0 -70 -27
1 -77 82 -171 171 -197 59 -18 166 -21 219 -6 62 17 126 65 157 117 23 39 28
60 28 113 0 122 -50 178 -202 224 -204 63 -228 79 -228 151 0 40 5 51 33 76
29 26 40 29 97 29 58 0 68 -3 100 -31 19 -17 35 -40 35 -50 0 -17 8 -19 80
-19 44 0 80 3 80 8 -1 60 -65 148 -134 185 -52 26 -211 35 -267 14z"/>
<path d="M14740 2275 l0 -415 228 2 227 3 0 55 0 55 -157 3 -158 3 0 124 0
125 140 0 140 0 0 55 0 55 -140 0 -140 0 0 120 0 120 160 0 160 0 0 55 0 55
-230 0 -230 0 0 -415z"/>
<path d="M16030 2635 l0 -55 110 0 110 0 2 -357 3 -358 68 -3 67 -3 0 361 0
360 110 0 110 0 0 55 0 55 -290 0 -290 0 0 -55z"/>
<path d="M16742 2278 l3 -413 175 0 c205 0 278 15 369 76 124 83 181 227 160
403 -21 164 -116 276 -280 327 -50 16 -93 19 -245 19 l-184 0 2 -412z m413
273 c100 -44 146 -118 153 -247 6 -115 -15 -184 -76 -245 -61 -60 -121 -79
-254 -79 l-98 0 0 301 0 302 113 -5 c87 -3 123 -9 162 -27z"/>
</g>
</svg>
